<svg width="735" height="311" viewBox="0 0 735 311" fill="none" xmlns="http://www.w3.org/2000/svg">
<rect width="735" height="311" fill="#0C0B0B"/>
<path d="M330.351 221H322.915L346.461 183.295H353.976L362.782 221H355.531L353.29 210.717H340.766L344.378 204.652H351.972L348.86 190.493L330.351 221ZM398.246 193.314L392.709 221H386.513L387.594 211.666C384.166 217.889 379.877 221 374.727 221C369.4 221 367.335 218.003 368.53 212.009L372.274 193.314H379.262L375.518 212.088C375.078 214.268 376.115 215.357 378.629 215.357C381.951 215.357 385.273 212.431 388.596 206.577L391.259 193.314H398.246ZM405.761 188.832H410.929L411.087 193.314H417.521L416.413 198.852H410.744L408.187 211.587C407.677 214.171 408.538 215.463 410.771 215.463H413.091L411.983 221H406.288C401.647 221 399.828 218.513 400.83 213.538L405.761 188.832ZM425.721 207.052C424.561 212.835 426.134 215.727 430.44 215.727C434.747 215.727 437.48 212.835 438.641 207.052C439.766 201.409 438.175 198.588 433.868 198.588C429.562 198.588 426.846 201.409 425.721 207.052ZM418.707 207.157C420.588 197.753 426.011 193.051 434.976 193.051C443.94 193.051 447.482 197.753 445.602 207.157C443.721 216.544 438.298 221.237 429.333 221.237C420.403 221.237 416.861 216.544 418.707 207.157ZM448.106 221L453.644 193.314H459.84L458.838 202.332C462.002 196.32 465.588 193.314 469.596 193.314C474.869 193.314 476.899 196.338 475.687 202.385C479.22 196.338 482.973 193.314 486.945 193.314C492.605 193.314 494.732 196.821 493.326 203.835L489.898 221H482.911L486.392 203.571C487.007 200.495 486.277 198.957 484.203 198.957C481.25 198.957 478.227 201.91 475.133 207.816L472.496 221H465.509L468.989 203.65C469.604 200.521 468.893 198.957 466.854 198.957C463.76 198.957 460.719 201.91 457.73 207.816L455.094 221H448.106ZM504.98 207.052C503.82 212.835 505.394 215.727 509.7 215.727C514.007 215.727 516.74 212.835 517.9 207.052C519.025 201.409 517.435 198.588 513.128 198.588C508.821 198.588 506.105 201.409 504.98 207.052ZM497.967 207.157C499.848 197.753 505.271 193.051 514.235 193.051C523.2 193.051 526.742 197.753 524.861 207.157C522.98 216.544 517.558 221.237 508.593 221.237C499.663 221.237 496.121 216.544 497.967 207.157ZM533.8 188.832H538.968L539.126 193.314H545.56L544.452 198.852H538.783L536.226 211.587C535.716 214.171 536.577 215.463 538.81 215.463H541.13L540.022 221H534.327C529.687 221 527.867 218.513 528.869 213.538L533.8 188.832ZM545.296 221L550.833 193.314H557.029L556.054 202.121C559.183 196.25 562.54 193.314 566.126 193.314L564.939 199.221C561.459 199.221 558.128 202.06 554.946 207.737L552.283 221H545.296ZM579.072 183.295L577.965 188.832H570.978L572.085 183.295H579.072ZM577.068 193.314L571.531 221H564.544L570.081 193.314H577.068ZM583.027 193.314H603.594L602.486 198.852L585.743 215.727H598.584L597.529 221H576.963L578.018 215.727L594.708 198.852H581.92L583.027 193.314Z" fill="#FFFDFD"/>
<path d="M328.25 160.505C322.069 184.908 300.108 202 274.934 202H181.87C146.586 202 120.428 169.246 128.232 134.835L138.438 89.8355C144.12 64.7828 166.387 47 192.076 47H286.332C322.184 47 348.451 80.7504 339.648 115.505L328.25 160.505Z" fill="#CF2424"/>
<path d="M154.932 276H61L122.757 47H210L154.932 276Z" fill="#CF2424"/>
<path d="M207.542 162H92L103 108H219L207.542 162Z" fill="#111111"/>
<path d="M276.502 147.368C274.885 155.858 267.462 162 258.819 162H191.59C180.352 162 171.862 151.817 173.883 140.762L177.175 122.762C178.738 114.212 186.189 108 194.881 108H262.248C273.539 108 282.043 118.276 279.93 129.368L276.502 147.368Z" fill="#111111"/>
<path d="M77.6301 157.5L83.9301 130.5H265.388L259.9 157.5H77.6301Z" fill="#BBB9B9" stroke="black"/>
<g filter="url(#filter0_d_0_1)">
<path d="M365.63 177.1C359.91 177.1 355.51 175.743 352.43 173.03C349.423 170.317 347.92 166.43 347.92 161.37C347.92 159.463 348.067 157.74 348.36 156.2L354.63 121H370.03L363.76 156.2C363.54 157.373 363.43 158.437 363.43 159.39C363.43 161.81 364.017 163.643 365.19 164.89C366.363 166.063 368.013 166.65 370.14 166.65C372.707 166.65 375.237 165.55 377.73 163.35C378.83 162.323 379.82 161.223 380.7 160.05L387.63 121H403.03L393.35 176H382.35V169.4H381.8C380.333 171.013 378.867 172.297 377.4 173.25C373.733 175.817 369.81 177.1 365.63 177.1ZM428.339 177.1C412.865 177.1 405.129 170.317 405.129 156.75C405.129 154.037 405.385 151.287 405.899 148.5C407.585 139.04 410.959 131.927 416.019 127.16C421.079 122.32 427.422 119.9 435.049 119.9C441.429 119.9 446.342 121.587 449.789 124.96C453.309 128.333 455.069 133.283 455.069 139.81C455.069 142.083 454.849 144.613 454.409 147.4L453.969 150.15L450.119 153.45H420.419C420.125 155.357 419.979 156.677 419.979 157.41C419.979 163.937 423.719 167.2 431.199 167.2C434.425 167.2 437.359 166.467 439.999 165C441.319 164.34 442.492 163.607 443.519 162.8H444.619L448.029 171.6C445.829 172.847 443.922 173.763 442.309 174.35C437.762 176.183 433.105 177.1 428.339 177.1ZM439.779 143.55C440.072 142.157 440.219 140.727 440.219 139.26C440.219 136.253 439.559 133.943 438.239 132.33C436.919 130.643 435.305 129.8 433.399 129.8C430.979 129.8 428.705 131.01 426.579 133.43C424.452 135.777 422.985 139.15 422.179 143.55H439.779ZM457.107 176L469.867 103.4L475.037 99H486.037L472.507 176H457.107ZM506.967 177.1C491.86 177.1 484.307 170.353 484.307 156.86C484.307 154.073 484.564 151.287 485.077 148.5C486.764 138.967 490.21 131.817 495.417 127.05C500.624 122.283 507.444 119.9 515.877 119.9C520.277 119.9 524.604 120.817 528.857 122.65C530.25 123.237 531.864 124.153 533.697 125.4L527.207 134.2H526.107C525.374 133.467 524.457 132.733 523.357 132C521.23 130.533 518.554 129.8 515.327 129.8C511.514 129.8 508.397 131.23 505.977 134.09C503.557 136.877 501.724 141.68 500.477 148.5C499.964 151.287 499.707 153.89 499.707 156.31C499.707 160.197 500.55 162.983 502.237 164.67C503.924 166.357 506.454 167.2 509.827 167.2C513.054 167.2 515.987 166.467 518.627 165C519.947 164.34 521.12 163.607 522.147 162.8H523.247L526.657 171.6C524.457 172.847 522.55 173.763 520.937 174.35C516.39 176.183 511.734 177.1 506.967 177.1ZM544.104 103.4L549.274 99H560.274L555.654 124.85C556.607 124.117 557.817 123.31 559.284 122.43C562.511 120.743 565.627 119.9 568.634 119.9C574.354 119.9 578.717 121.257 581.724 123.97C584.804 126.683 586.344 130.57 586.344 135.63C586.344 137.537 586.197 139.26 585.904 140.8L579.744 176H564.344L570.504 140.8C570.724 139.553 570.834 138.49 570.834 137.61C570.834 135.19 570.247 133.393 569.074 132.22C567.901 130.973 566.251 130.35 564.124 130.35C561.557 130.35 559.027 131.45 556.534 133.65C555.434 134.603 554.444 135.703 553.564 136.95L546.744 176H531.344L544.104 103.4ZM614.196 177.1C598.722 177.1 590.986 170.317 590.986 156.75C590.986 154.037 591.242 151.287 591.756 148.5C593.442 139.04 596.816 131.927 601.876 127.16C606.936 122.32 613.279 119.9 620.906 119.9C627.286 119.9 632.199 121.587 635.646 124.96C639.166 128.333 640.926 133.283 640.926 139.81C640.926 142.083 640.706 144.613 640.266 147.4L639.826 150.15L635.976 153.45H606.276C605.982 155.357 605.836 156.677 605.836 157.41C605.836 163.937 609.576 167.2 617.056 167.2C620.282 167.2 623.216 166.467 625.856 165C627.176 164.34 628.349 163.607 629.376 162.8H630.476L633.886 171.6C631.686 172.847 629.779 173.763 628.166 174.35C623.619 176.183 618.962 177.1 614.196 177.1ZM625.636 143.55C625.929 142.157 626.076 140.727 626.076 139.26C626.076 136.253 625.416 133.943 624.096 132.33C622.776 130.643 621.162 129.8 619.256 129.8C616.836 129.8 614.562 131.01 612.436 133.43C610.309 135.777 608.842 139.15 608.036 143.55H625.636Z" fill="#FFFBFB"/>
</g>
<defs>
<filter id="filter0_d_0_1" x="343.92" y="99" width="301.006" height="86.1" filterUnits="userSpaceOnUse" color-interpolation-filters="sRGB">
<feFlood flood-opacity="0" result="BackgroundImageFix"/>
<feColorMatrix in="SourceAlpha" type="matrix" values="0 0 0 0 0 0 0 0 0 0 0 0 0 0 0 0 0 0 127 0" result="hardAlpha"/>
<feOffset dy="4"/>
<feGaussianBlur stdDeviation="2"/>
<feComposite in2="hardAlpha" operator="out"/>
<feColorMatrix type="matrix" values="0 0 0 0 0 0 0 0 0 0 0 0 0 0 0 0 0 0 0.25 0"/>
<feBlend mode="normal" in2="BackgroundImageFix" result="effect1_dropShadow_0_1"/>
<feBlend mode="normal" in="SourceGraphic" in2="effect1_dropShadow_0_1" result="shape"/>
</filter>
</defs>
</svg>
